<?xml version="1.0" encoding="UTF-8"?>
<!DOCTYPE svg PUBLIC "-//W3C//DTD SVG 1.1//EN" "http://www.w3.org/Graphics/SVG/1.1/DTD/svg11.dtd">
<svg xmlns="http://www.w3.org/2000/svg" version="1.1" width="500px" height="500px" style="shape-rendering:geometricPrecision; text-rendering:geometricPrecision; image-rendering:optimizeQuality; fill-rule:evenodd; clip-rule:evenodd" xmlns:xlink="http://www.w3.org/1999/xlink">
<g><path style="opacity:1" fill="#fe4c74" d="M 349.5,103.5 C 342.391,104.379 335.724,106.379 329.5,109.5C 337.166,107.284 344.832,105.617 352.5,104.5C 357.232,104.378 361.898,104.878 366.5,106C 378.785,113.406 392.118,117.406 406.5,118C 416.644,119.693 424.811,124.527 431,132.5C 431.912,134.659 432.745,136.825 433.5,139C 432.833,139.333 432.167,139.667 431.5,140C 424.5,140.333 417.5,140.667 410.5,141C 401.388,145.056 392.388,149.389 383.5,154C 376.014,157.273 368.347,159.94 360.5,162C 354.167,162.667 347.833,162.667 341.5,162C 325.256,159.396 308.922,158.396 292.5,159C 288.23,160.254 283.896,161.254 279.5,162C 277.112,163.861 274.446,165.194 271.5,166C 259.822,168.214 249.655,165.38 241,157.5C 240.506,155.866 240.34,154.199 240.5,152.5C 242.807,149.362 245.641,146.695 249,144.5C 249.667,143.833 249.667,143.167 249,142.5C 244.719,144.616 241.219,147.616 238.5,151.5C 235.023,155.067 231.356,158.4 227.5,161.5C 223.369,163.031 219.702,165.364 216.5,168.5C 215.639,170.911 214.306,172.911 212.5,174.5C 212.565,174.062 212.399,173.728 212,173.5C 206.571,179.354 202.404,186.02 199.5,193.5C 198.726,194.147 197.726,194.48 196.5,194.5C 192.195,193.34 187.861,192.34 183.5,191.5C 183.082,190.778 182.416,190.278 181.5,190C 175.175,189.5 168.842,189.334 162.5,189.5C 161.244,189.461 160.244,189.961 159.5,191C 163.486,191.499 167.486,191.666 171.5,191.5C 172.833,191.5 174.167,191.5 175.5,191.5C 191.711,194.506 206.211,201.173 219,211.5C 221.783,215.015 223.283,219.015 223.5,223.5C 219.5,224.004 215.834,225.337 212.5,227.5C 212.389,226.883 212.056,226.383 211.5,226C 212.759,225.077 214.092,224.243 215.5,223.5C 213.672,222.205 211.672,221.205 209.5,220.5C 210.09,219.201 211.09,218.368 212.5,218C 210.699,217.683 210.366,217.016 211.5,216C 210.391,215.362 209.225,214.862 208,214.5C 203.443,216.407 198.943,218.407 194.5,220.5C 191.964,220.156 189.797,219.156 188,217.5C 186.933,218.191 185.766,218.691 184.5,219C 188.335,219.947 191.668,221.78 194.5,224.5C 191.247,226.112 189.08,225.112 188,221.5C 187.632,222.91 186.799,223.91 185.5,224.5C 184.761,222.456 183.427,220.289 181.5,218C 177.708,216.363 174.041,214.53 170.5,212.5C 169.833,212.833 169.167,213.167 168.5,213.5C 167.276,212.234 165.943,211.067 164.5,210C 168.185,209.086 167.852,208.419 163.5,208C 165.078,206.906 166.745,206.072 168.5,205.5C 174.071,208.186 179.738,210.353 185.5,212C 178.811,206.322 171.477,201.655 163.5,198C 157.114,196.791 151.114,197.791 145.5,201C 148.817,201.498 152.15,201.665 155.5,201.5C 157.932,202.958 160.599,204.125 163.5,205C 160.876,205.04 158.209,204.873 155.5,204.5C 153.288,204.412 151.288,204.912 149.5,206C 151.569,206.324 151.902,207.158 150.5,208.5C 153.168,209.738 155.834,209.738 158.5,208.5C 159.474,210.743 159.808,213.076 159.5,215.5C 157.234,215.859 155.401,215.192 154,213.5C 151.667,214.833 149.333,214.833 147,213.5C 146.667,214.167 146.333,214.833 146,215.5C 143.613,215.07 140.946,214.404 138,213.5C 136.225,214.27 134.725,215.437 133.5,217C 133.833,217.333 134.167,217.667 134.5,218C 130.343,220.48 126.676,219.98 123.5,216.5C 113.766,223.377 113.099,222.377 121.5,213.5C 121.5,212.833 121.5,212.167 121.5,211.5C 127.81,207.185 133.81,202.518 139.5,197.5C 133.242,200.437 127.242,203.77 121.5,207.5C 126.404,195.977 131.238,184.31 136,172.5C 136.608,158.98 138.441,145.646 141.5,132.5C 142.657,129.727 143.324,126.727 143.5,123.5C 149.84,96.3537 163.507,73.5203 184.5,55C 195.478,46.1783 206.811,37.845 218.5,30C 243.609,18.238 269.942,13.5713 297.5,16C 326.959,22.3101 349.792,38.1435 366,63.5C 369.27,69.0399 372.27,74.7065 375,80.5C 377.923,89.3128 379.256,98.3128 379,107.5C 369.512,103.502 359.679,102.168 349.5,103.5 Z"/></g>
<g><path style="opacity:1" fill="#0f1117" d="M 224.5,139.5 C 224.63,129.17 223.463,129.17 221,139.5C 218.91,141.416 217.077,143.416 215.5,145.5C 207.699,148.378 201.199,146.378 196,139.5C 186.58,123.688 190.747,114.021 208.5,110.5C 216.272,110.8 221.772,114.467 225,121.5C 226.33,127.452 226.663,133.452 226,139.5C 225.31,140.738 224.81,140.738 224.5,139.5 Z"/></g>
<g><path style="opacity:1" fill="#d3c8cc" d="M 204.5,130.5 C 205.833,130.5 207.167,130.5 208.5,130.5C 209.244,133.95 207.91,135.616 204.5,135.5C 204.5,133.833 204.5,132.167 204.5,130.5 Z"/></g>
<g><path style="opacity:1" fill="#f5ebec" d="M 211.5,117.5 C 219.121,117.946 221.621,121.946 219,129.5C 215.527,133.717 212.527,133.384 210,128.5C 209.013,124.525 209.513,120.859 211.5,117.5 Z"/></g>
<g><path style="opacity:1" fill="#2f4e65" d="M 199.5,134.5 C 198.5,134.5 197.5,134.5 196.5,134.5C 196.336,131.813 196.503,129.146 197,126.5C 197.414,126.043 197.914,125.709 198.5,125.5C 199.484,128.428 199.817,131.428 199.5,134.5 Z"/></g>
<g><path style="opacity:1" fill="#dee5c0" d="M 196.5,134.5 C 197.5,134.5 198.5,134.5 199.5,134.5C 200.473,136.139 201.806,137.473 203.5,138.5C 202.449,139.222 201.782,140.222 201.5,141.5C 198.677,140.008 197.01,137.674 196.5,134.5 Z"/></g>
<g><path style="opacity:0.992" fill="#0e0d12" d="M 143.5,123.5 C 143.324,126.727 142.657,129.727 141.5,132.5C 141.631,131.761 141.464,131.094 141,130.5C 140.801,132.402 139.967,133.902 138.5,135C 139.406,136.699 139.739,138.533 139.5,140.5C 138.5,140.5 137.5,140.5 136.5,140.5C 136.657,141.873 136.49,143.207 136,144.5C 135.503,141.854 135.336,139.187 135.5,136.5C 135.5,135.167 135.5,133.833 135.5,132.5C 133.217,132.608 131.217,133.441 129.5,135C 110.401,150.589 94.4012,168.755 81.5,189.5C 79.9837,190.9 78.3171,192.233 76.5,193.5C 75.5713,192.311 75.238,190.978 75.5,189.5C 89.8355,161.04 110.502,138.207 137.5,121C 138.971,119.417 139.971,117.583 140.5,115.5C 142.093,114.652 143.26,113.319 144,111.5C 143.733,115.441 143.566,119.441 143.5,123.5 Z"/></g>
<g><path style="opacity:1" fill="#e2c0c8" d="M 224.5,139.5 C 222.834,143.815 219.834,145.815 215.5,145.5C 217.077,143.416 218.91,141.416 221,139.5C 223.463,129.17 224.63,129.17 224.5,139.5 Z"/></g>
<g><path style="opacity:1" fill="#99dfcc" d="M 203.5,138.5 C 204.391,139.11 205.391,139.443 206.5,139.5C 206.842,140.338 207.508,140.672 208.5,140.5C 207.833,141.5 207.167,142.5 206.5,143.5C 204.447,143.598 202.78,142.931 201.5,141.5C 201.782,140.222 202.449,139.222 203.5,138.5 Z"/></g>
<g><path style="opacity:1" fill="#20536e" d="M 209.5,143.5 C 209.414,142.504 209.748,141.671 210.5,141C 209.906,140.536 209.239,140.369 208.5,140.5C 207.508,140.672 206.842,140.338 206.5,139.5C 208.857,139.663 211.19,139.497 213.5,139C 216.48,132.931 217.98,133.098 218,139.5C 215.36,141.32 212.527,142.654 209.5,143.5 Z"/></g>
<g><path style="opacity:1" fill="#c7546e" d="M 208.5,140.5 C 209.239,140.369 209.906,140.536 210.5,141C 209.748,141.671 209.414,142.504 209.5,143.5C 208.5,144.833 207.5,144.833 206.5,143.5C 207.167,142.5 207.833,141.5 208.5,140.5 Z"/></g>
<g><path style="opacity:1" fill="#382e40" d="M 240.5,152.5 C 240.158,151.662 239.492,151.328 238.5,151.5C 241.219,147.616 244.719,144.616 249,142.5C 249.667,143.167 249.667,143.833 249,144.5C 245.641,146.695 242.807,149.362 240.5,152.5 Z"/></g>
<g><path style="opacity:1" fill="#16131b" d="M 371.5,190.5 C 372.167,189.167 372.833,187.833 373.5,186.5C 382.538,181.986 391.871,177.986 401.5,174.5C 408.579,171.714 415.246,168.381 421.5,164.5C 427.547,162.456 431.88,158.456 434.5,152.5C 432.879,145.839 428.546,142.839 421.5,143.5C 416.296,143.734 411.296,144.9 406.5,147C 396.285,151.853 385.952,156.519 375.5,161C 369.199,162.492 362.865,163.825 356.5,165C 340.684,164.536 324.851,164.036 309,163.5C 302.12,163.537 295.287,163.87 288.5,164.5C 286.143,164.337 283.81,164.503 281.5,165C 280.944,165.383 280.611,165.883 280.5,166.5C 271.87,170.188 262.87,171.355 253.5,170C 248.283,166.372 242.617,163.706 236.5,162C 233.518,161.502 230.518,161.335 227.5,161.5C 231.356,158.4 235.023,155.067 238.5,151.5C 239.492,151.328 240.158,151.662 240.5,152.5C 240.34,154.199 240.506,155.866 241,157.5C 249.655,165.38 259.822,168.214 271.5,166C 274.446,165.194 277.112,163.861 279.5,162C 283.896,161.254 288.23,160.254 292.5,159C 308.922,158.396 325.256,159.396 341.5,162C 347.833,162.667 354.167,162.667 360.5,162C 368.347,159.94 376.014,157.273 383.5,154C 392.388,149.389 401.388,145.056 410.5,141C 417.5,140.667 424.5,140.333 431.5,140C 432.167,139.667 432.833,139.333 433.5,139C 432.745,136.825 431.912,134.659 431,132.5C 424.811,124.527 416.644,119.693 406.5,118C 392.118,117.406 378.785,113.406 366.5,106C 361.898,104.878 357.232,104.378 352.5,104.5C 351.209,104.737 350.209,104.404 349.5,103.5C 359.679,102.168 369.512,103.502 379,107.5C 379.256,98.3128 377.923,89.3128 375,80.5C 372.27,74.7065 369.27,69.0399 366,63.5C 349.792,38.1435 326.959,22.3101 297.5,16C 269.942,13.5713 243.609,18.238 218.5,30C 206.811,37.845 195.478,46.1783 184.5,55C 163.507,73.5203 149.84,96.3537 143.5,123.5C 143.566,119.441 143.733,115.441 144,111.5C 143.26,113.319 142.093,114.652 140.5,115.5C 144.659,99.8507 151.492,85.5174 161,72.5C 182.236,46.2646 208.736,27.4313 240.5,16C 274.878,4.71344 307.544,8.71344 338.5,28C 357.233,41.4075 370.733,58.9075 379,80.5C 382.612,90.6131 385.445,100.946 387.5,111.5C 402.516,112.339 416.516,116.506 429.5,124C 436.175,131.672 439.175,140.672 438.5,151C 438.327,155.386 436.66,159.053 433.5,162C 413.98,173.926 393.313,183.426 371.5,190.5 Z"/></g>
<g><path style="opacity:1" fill="#8e1d3d" d="M 329.5,109.5 C 326.648,111.076 323.648,112.576 320.5,114C 319.5,114.667 318.5,114.667 317.5,114C 321.203,111.646 325.203,110.146 329.5,109.5 Z"/></g>
<g><path style="opacity:1" fill="#541832" d="M 349.5,103.5 C 350.209,104.404 351.209,104.737 352.5,104.5C 344.832,105.617 337.166,107.284 329.5,109.5C 335.724,106.379 342.391,104.379 349.5,103.5 Z"/></g>
<g><path style="opacity:1" fill="#332f43" d="M 201.5,92.5 C 203.924,92.1924 206.257,92.5258 208.5,93.5C 199.399,94.7556 192.566,99.4223 188,107.5C 188.126,104.902 189.126,102.569 191,100.5C 194.4,97.5862 197.9,94.9195 201.5,92.5 Z"/></g>
<g><path style="opacity:1" fill="#12111d" d="M 269.5,21.5 C 270.774,22.1894 270.774,23.0228 269.5,24C 262.402,29.6246 254.736,30.7913 246.5,27.5C 254.114,24.7838 261.781,22.7838 269.5,21.5 Z"/></g>
<g><path style="opacity:1" fill="#fdc8d4" d="M 421.5,164.5 C 420.504,164.586 419.671,164.252 419,163.5C 412.751,166.598 406.917,170.265 401.5,174.5C 391.871,177.986 382.538,181.986 373.5,186.5C 368.927,187.579 364.593,189.246 360.5,191.5C 348.228,195.486 335.894,199.319 323.5,203C 335.11,202.544 346.276,200.044 357,195.5C 358.376,195.684 359.209,196.351 359.5,197.5C 356.209,202.471 352.875,207.471 349.5,212.5C 348.354,214.475 346.687,215.975 344.5,217C 344.833,217.333 345.167,217.667 345.5,218C 342.544,220.293 339.21,221.627 335.5,222C 337.952,222.29 340.285,222.956 342.5,224C 339.833,224.667 339.833,225.333 342.5,226C 341.748,226.671 341.414,227.504 341.5,228.5C 337.201,230.913 332.534,232.413 327.5,233C 317.789,233.838 308.122,235.005 298.5,236.5C 289.462,232.574 280.128,229.574 270.5,227.5C 267.144,225.621 263.477,225.121 259.5,226C 262.202,226.84 264.868,227.673 267.5,228.5C 275.045,230.609 282.045,233.775 288.5,238C 289.833,238.667 289.833,239.333 288.5,240C 286.933,241.076 285.266,241.909 283.5,242.5C 267.592,233.215 250.592,226.715 232.5,223C 228.875,217.585 225.375,212.085 222,206.5C 218.685,204.095 215.185,202.095 211.5,200.5C 211.539,198.641 210.706,197.308 209,196.5C 207.293,197.138 205.46,197.138 203.5,196.5C 203.167,196.5 202.833,196.5 202.5,196.5C 203.138,187.893 206.472,180.56 212.5,174.5C 214.306,172.911 215.639,170.911 216.5,168.5C 219.702,165.364 223.369,163.031 227.5,161.5C 230.518,161.335 233.518,161.502 236.5,162C 242.617,163.706 248.283,166.372 253.5,170C 262.87,171.355 271.87,170.188 280.5,166.5C 283.33,166.037 285.997,165.371 288.5,164.5C 295.287,163.87 302.12,163.537 309,163.5C 324.851,164.036 340.684,164.536 356.5,165C 362.865,163.825 369.199,162.492 375.5,161C 385.952,156.519 396.285,151.853 406.5,147C 411.296,144.9 416.296,143.734 421.5,143.5C 428.546,142.839 432.879,145.839 434.5,152.5C 431.88,158.456 427.547,162.456 421.5,164.5 Z"/></g>
<g><path style="opacity:1" fill="#bf556e" d="M 288.5,164.5 C 285.997,165.371 283.33,166.037 280.5,166.5C 280.611,165.883 280.944,165.383 281.5,165C 283.81,164.503 286.143,164.337 288.5,164.5 Z"/></g>
<g><path style="opacity:1" fill="#e89aac" d="M 421.5,164.5 C 415.246,168.381 408.579,171.714 401.5,174.5C 406.917,170.265 412.751,166.598 419,163.5C 419.671,164.252 420.504,164.586 421.5,164.5 Z"/></g>
<g><path style="opacity:1" fill="#5a2744" d="M 162.5,189.5 C 168.842,189.334 175.175,189.5 181.5,190C 182.416,190.278 183.082,190.778 183.5,191.5C 180.672,190.503 178.005,190.503 175.5,191.5C 174.167,191.5 172.833,191.5 171.5,191.5C 168.5,190.833 165.5,190.167 162.5,189.5 Z"/></g>
<g><path style="opacity:1" fill="#ad284a" d="M 162.5,189.5 C 165.5,190.167 168.5,190.833 171.5,191.5C 167.486,191.666 163.486,191.499 159.5,191C 160.244,189.961 161.244,189.461 162.5,189.5 Z"/></g>
<g><path style="opacity:1" fill="#30313d" d="M 212.5,174.5 C 206.472,180.56 203.138,187.893 202.5,196.5C 201.9,195.1 200.9,194.1 199.5,193.5C 202.404,186.02 206.571,179.354 212,173.5C 212.399,173.728 212.565,174.062 212.5,174.5 Z"/></g>
<g><path style="opacity:1" fill="#654e63" d="M 139.5,197.5 C 140.002,195.915 141.002,195.415 142.5,196C 141.756,197.039 140.756,197.539 139.5,197.5 Z"/></g>
<g><path style="opacity:1" fill="#df869b" d="M 203.5,196.5 C 205.46,197.138 207.293,197.138 209,196.5C 210.706,197.308 211.539,198.641 211.5,200.5C 208.672,199.345 206.005,198.011 203.5,196.5 Z"/></g>
<g><path style="opacity:1" fill="#271f2d" d="M 360.5,191.5 C 357.961,192.907 358.294,194.073 361.5,195C 360.934,195.995 360.267,196.828 359.5,197.5C 359.209,196.351 358.376,195.684 357,195.5C 346.276,200.044 335.11,202.544 323.5,203C 335.894,199.319 348.228,195.486 360.5,191.5 Z"/></g>
<g><path style="opacity:1" fill="#1e2433" d="M 139.5,197.5 C 133.81,202.518 127.81,207.185 121.5,211.5C 118.833,210.167 118.833,208.833 121.5,207.5C 127.242,203.77 133.242,200.437 139.5,197.5 Z"/></g>
<g><path style="opacity:1" fill="#fe4c74" d="M 155.5,201.5 C 160.33,201.588 164.663,202.922 168.5,205.5C 166.745,206.072 165.078,206.906 163.5,208C 167.852,208.419 168.185,209.086 164.5,210C 165.943,211.067 167.276,212.234 168.5,213.5C 169.167,213.167 169.833,212.833 170.5,212.5C 174.041,214.53 177.708,216.363 181.5,218C 183.427,220.289 184.761,222.456 185.5,224.5C 186.799,223.91 187.632,222.91 188,221.5C 189.08,225.112 191.247,226.112 194.5,224.5C 191.668,221.78 188.335,219.947 184.5,219C 185.766,218.691 186.933,218.191 188,217.5C 189.797,219.156 191.964,220.156 194.5,220.5C 198.943,218.407 203.443,216.407 208,214.5C 209.225,214.862 210.391,215.362 211.5,216C 210.366,217.016 210.699,217.683 212.5,218C 211.09,218.368 210.09,219.201 209.5,220.5C 211.672,221.205 213.672,222.205 215.5,223.5C 214.092,224.243 212.759,225.077 211.5,226C 212.056,226.383 212.389,226.883 212.5,227.5C 210.364,228.403 208.364,229.569 206.5,231C 207,231.167 207.5,231.333 208,231.5C 214.928,228.81 222.095,227.143 229.5,226.5C 241.709,228.609 253.709,231.776 265.5,236C 270.934,239.468 276.101,243.301 281,247.5C 284.231,252.841 286.898,258.508 289,264.5C 289.232,260.174 288.398,256.008 286.5,252C 288.204,246.564 291.537,242.564 296.5,240C 315.669,237.929 334.669,234.929 353.5,231C 365.944,229.225 376.278,233.059 384.5,242.5C 385.894,247.507 385.061,252.174 382,256.5C 376.978,264.339 371.811,272.005 366.5,279.5C 363.605,281.202 361.772,283.536 361,286.5C 362.777,284.21 364.944,282.543 367.5,281.5C 362.843,296.978 354.51,310.144 342.5,321C 337.793,324.354 332.793,327.187 327.5,329.5C 327.403,327.166 328.403,325 330.5,323C 329.833,322.333 329.167,322.333 328.5,323C 322.638,329.749 317.971,337.249 314.5,345.5C 309.952,349.912 304.952,350.579 299.5,347.5C 298.158,346.207 296.491,345.374 294.5,345C 285.825,344.463 277.159,344.63 268.5,345.5C 258.774,345.154 249.108,344.321 239.5,343C 229.486,339.324 219.486,335.658 209.5,332C 199.617,327.952 190.617,322.452 182.5,315.5C 182.167,315.667 181.833,315.833 181.5,316C 185.093,319.085 188.093,322.585 190.5,326.5C 189.373,329.083 187.373,330.75 184.5,331.5C 184.082,330.778 183.416,330.278 182.5,330C 183.28,328.927 183.113,327.76 182,326.5C 181.147,328.125 180.147,328.458 179,327.5C 176.348,328.59 174.848,330.59 174.5,333.5C 176.325,334.571 177.492,333.904 178,331.5C 178.5,332 179,332.5 179.5,333C 178.107,334.171 177.273,335.671 177,337.5C 175.278,337.038 173.445,336.872 171.5,337C 172.576,335.274 172.743,333.441 172,331.5C 171.788,334.44 170.288,336.274 167.5,337C 167.833,337.333 168.167,337.667 168.5,338C 164.763,340.189 163.429,339.189 164.5,335C 163.991,333.831 163.158,332.998 162,332.5C 155.721,333.757 149.388,333.757 143,332.5C 141.674,332.755 140.674,333.422 140,334.5C 139.549,332.071 138.715,331.904 137.5,334C 138.823,334.816 139.489,335.983 139.5,337.5C 111.356,319.315 97.8559,293.315 99,259.5C 100.727,244.386 106.061,230.719 115,218.5C 116.777,216.21 118.944,214.543 121.5,213.5C 113.099,222.377 113.766,223.377 123.5,216.5C 126.676,219.98 130.343,220.48 134.5,218C 134.167,217.667 133.833,217.333 133.5,217C 134.725,215.437 136.225,214.27 138,213.5C 140.946,214.404 143.613,215.07 146,215.5C 146.333,214.833 146.667,214.167 147,213.5C 149.333,214.833 151.667,214.833 154,213.5C 155.401,215.192 157.234,215.859 159.5,215.5C 159.808,213.076 159.474,210.743 158.5,208.5C 155.834,209.738 153.168,209.738 150.5,208.5C 151.902,207.158 151.569,206.324 149.5,206C 151.288,204.912 153.288,204.412 155.5,204.5C 158.209,204.873 160.876,205.04 163.5,205C 160.599,204.125 157.932,202.958 155.5,201.5 Z"/></g>
<g><path style="opacity:1" fill="#161421" d="M 168.5,205.5 C 164.663,202.922 160.33,201.588 155.5,201.5C 152.15,201.665 148.817,201.498 145.5,201C 151.114,197.791 157.114,196.791 163.5,198C 171.477,201.655 178.811,206.322 185.5,212C 179.738,210.353 174.071,208.186 168.5,205.5 Z"/></g>
<g><path style="opacity:1" fill="#fd4a72" d="M 135.5,136.5 C 133.982,139.534 133.149,142.867 133,146.5C 132.863,158.549 130.863,170.216 127,181.5C 122.333,192.167 117.667,202.833 113,213.5C 99.955,228.275 92.955,245.608 92,265.5C 85.4473,270.871 78.9473,276.371 72.5,282C 69.1351,284.157 65.9684,283.991 63,281.5C 59.7832,274.161 58.7832,266.495 60,258.5C 61.687,233.616 68.8536,210.616 81.5,189.5C 94.4012,168.755 110.401,150.589 129.5,135C 131.217,133.441 133.217,132.608 135.5,132.5C 135.5,133.833 135.5,135.167 135.5,136.5 Z"/></g>
<g><path style="opacity:1" fill="#feceda" d="M 351.5,214.5 C 351.5,214.833 351.5,215.167 351.5,215.5C 350.897,217.19 349.897,218.69 348.5,220C 350.235,220.651 351.902,220.485 353.5,219.5C 356.929,221.881 360.596,223.715 364.5,225C 361.023,225.663 357.523,226.163 354,226.5C 351.163,226.316 348.663,225.316 346.5,223.5C 345.251,221.804 345.251,219.97 346.5,218C 347.789,216.198 349.456,215.031 351.5,214.5 Z"/></g>
<g><path style="opacity:1" fill="#f6b5c4" d="M 349.5,212.5 C 350.167,213.167 350.833,213.833 351.5,214.5C 349.456,215.031 347.789,216.198 346.5,218C 345.251,219.97 345.251,221.804 346.5,223.5C 348.663,225.316 351.163,226.316 354,226.5C 357.523,226.163 361.023,225.663 364.5,225C 360.596,223.715 356.929,221.881 353.5,219.5C 351.902,220.485 350.235,220.651 348.5,220C 349.897,218.69 350.897,217.19 351.5,215.5C 353.779,218.442 356.779,220.109 360.5,220.5C 374.442,223.528 386.609,229.862 397,239.5C 397.456,240.744 396.956,241.577 395.5,242C 393.098,242.814 390.765,242.647 388.5,241.5C 376.37,228.632 361.703,224.466 344.5,229C 346.396,227.935 346.563,227.102 345,226.5C 343.697,226.978 342.531,227.645 341.5,228.5C 341.414,227.504 341.748,226.671 342.5,226C 339.833,225.333 339.833,224.667 342.5,224C 340.285,222.956 337.952,222.29 335.5,222C 339.21,221.627 342.544,220.293 345.5,218C 345.167,217.667 344.833,217.333 344.5,217C 346.687,215.975 348.354,214.475 349.5,212.5 Z"/></g>
<g><path style="opacity:1" fill="#120f17" d="M 141.5,132.5 C 138.441,145.646 136.608,158.98 136,172.5C 131.238,184.31 126.404,195.977 121.5,207.5C 118.833,208.833 118.833,210.167 121.5,211.5C 121.5,212.167 121.5,212.833 121.5,213.5C 118.944,214.543 116.777,216.21 115,218.5C 106.061,230.719 100.727,244.386 99,259.5C 97.8559,293.315 111.356,319.315 139.5,337.5C 145.189,340.666 150.522,344.499 155.5,349C 154.422,349.674 153.755,350.674 153.5,352C 155.96,369.081 162.627,384.248 173.5,397.5C 180.992,404.49 188.659,411.323 196.5,418C 201.574,421.913 207.074,425.08 213,427.5C 218.535,445.105 223.868,462.772 229,480.5C 233.164,486.516 236.664,492.85 239.5,499.5C 237.833,499.5 236.167,499.5 234.5,499.5C 229.929,491.362 225.096,483.362 220,475.5C 217.822,460.774 213.488,446.774 207,433.5C 199.418,425.914 191.252,419.081 182.5,413C 173.168,405.01 165.334,395.843 159,385.5C 152.924,371.683 146.59,358.016 140,344.5C 133.5,339.333 127,334.167 120.5,329C 106.086,314.345 96.7525,296.845 92.5,276.5C 92,276.167 91.5,275.833 91,275.5C 84.4696,277.848 78.6362,281.348 73.5,286C 66.0004,290.676 61.0004,288.843 58.5,280.5C 56.27,268.922 55.9367,257.255 57.5,245.5C 60.7063,225.798 66.7063,207.131 75.5,189.5C 75.238,190.978 75.5713,192.311 76.5,193.5C 78.3171,192.233 79.9837,190.9 81.5,189.5C 68.8536,210.616 61.687,233.616 60,258.5C 58.7832,266.495 59.7832,274.161 63,281.5C 65.9684,283.991 69.1351,284.157 72.5,282C 78.9473,276.371 85.4473,270.871 92,265.5C 92.955,245.608 99.955,228.275 113,213.5C 117.667,202.833 122.333,192.167 127,181.5C 130.863,170.216 132.863,158.549 133,146.5C 133.149,142.867 133.982,139.534 135.5,136.5C 135.336,139.187 135.503,141.854 136,144.5C 136.49,143.207 136.657,141.873 136.5,140.5C 137.5,140.5 138.5,140.5 139.5,140.5C 139.739,138.533 139.406,136.699 138.5,135C 139.967,133.902 140.801,132.402 141,130.5C 141.464,131.094 141.631,131.761 141.5,132.5 Z"/></g>
<g><path style="opacity:0.971" fill="#110e15" d="M 373.5,186.5 C 372.833,187.833 372.167,189.167 371.5,190.5C 371.47,191.497 371.97,192.164 373,192.5C 386.865,197.698 396.865,207.032 403,220.5C 404.167,221.667 405.333,222.833 406.5,224C 425.992,227.498 443.158,235.664 458,248.5C 467.23,259.388 471.563,272.055 471,286.5C 471.54,289.361 472.54,292.028 474,294.5C 474.867,298.956 474.534,303.289 473,307.5C 465.167,314 458,321.167 451.5,329C 446.992,331.754 442.326,334.254 437.5,336.5C 434.667,340.167 431.833,343.833 429,347.5C 428.184,356.412 428.35,365.245 429.5,374C 428.547,377.862 427.38,381.695 426,385.5C 421.154,390.525 418.488,396.525 418,403.5C 417.35,420.507 417.517,437.507 418.5,454.5C 417.981,469.581 416.648,484.581 414.5,499.5C 412.5,499.5 410.5,499.5 408.5,499.5C 409.917,496.002 410.583,492.335 410.5,488.5C 414.16,461.059 414.493,433.559 411.5,406C 412.846,400.803 414.346,395.636 416,390.5C 421.011,385.145 423.844,378.811 424.5,371.5C 423.777,364.442 422.777,357.442 421.5,350.5C 421.167,350.167 420.833,349.833 420.5,349.5C 418.21,350.467 416.21,351.8 414.5,353.5C 413.325,353.719 412.325,353.386 411.5,352.5C 415.318,349.182 418.985,345.682 422.5,342C 419.854,341.503 417.187,341.336 414.5,341.5C 412.876,341.64 411.71,340.973 411,339.5C 407.82,342.065 404.653,341.898 401.5,339C 404.146,338.503 406.813,338.336 409.5,338.5C 416.638,337.734 423.638,336.234 430.5,334C 436.752,331.138 443.085,328.472 449.5,326C 453.641,318.026 459.641,311.859 467.5,307.5C 470.872,300.753 470.039,294.753 465,289.5C 463.833,286.5 462.667,283.5 461.5,280.5C 461.833,280.167 462.167,279.833 462.5,279.5C 463.182,280.243 463.849,280.909 464.5,281.5C 464.795,283.423 465.628,285.09 467,286.5C 467.556,284.115 467.39,281.782 466.5,279.5C 465.977,266.631 460.644,256.131 450.5,248C 437.324,238.719 422.824,232.553 407,229.5C 405.893,229.585 404.893,229.919 404,230.5C 398.24,217.073 388.74,207.24 375.5,201C 368.056,197.423 362.723,199.256 359.5,206.5C 360.348,210.229 361.348,213.896 362.5,217.5C 362.218,218.778 361.551,219.778 360.5,220.5C 356.779,220.109 353.779,218.442 351.5,215.5C 351.5,215.167 351.5,214.833 351.5,214.5C 350.833,213.833 350.167,213.167 349.5,212.5C 352.875,207.471 356.209,202.471 359.5,197.5C 360.267,196.828 360.934,195.995 361.5,195C 358.294,194.073 357.961,192.907 360.5,191.5C 364.593,189.246 368.927,187.579 373.5,186.5 Z"/></g>
<g><path style="opacity:1" fill="#14131c" d="M 175.5,191.5 C 178.005,190.503 180.672,190.503 183.5,191.5C 187.861,192.34 192.195,193.34 196.5,194.5C 197.726,194.48 198.726,194.147 199.5,193.5C 200.9,194.1 201.9,195.1 202.5,196.5C 202.833,196.5 203.167,196.5 203.5,196.5C 206.005,198.011 208.672,199.345 211.5,200.5C 215.185,202.095 218.685,204.095 222,206.5C 225.375,212.085 228.875,217.585 232.5,223C 250.592,226.715 267.592,233.215 283.5,242.5C 285.266,241.909 286.933,241.076 288.5,240C 289.833,239.333 289.833,238.667 288.5,238C 282.045,233.775 275.045,230.609 267.5,228.5C 268.209,227.596 269.209,227.263 270.5,227.5C 280.128,229.574 289.462,232.574 298.5,236.5C 308.122,235.005 317.789,233.838 327.5,233C 332.534,232.413 337.201,230.913 341.5,228.5C 342.531,227.645 343.697,226.978 345,226.5C 346.563,227.102 346.396,227.935 344.5,229C 361.703,224.466 376.37,228.632 388.5,241.5C 390.765,242.647 393.098,242.814 395.5,242C 396.956,241.577 397.456,240.744 397,239.5C 386.609,229.862 374.442,223.528 360.5,220.5C 361.551,219.778 362.218,218.778 362.5,217.5C 369.977,220.455 377.644,222.955 385.5,225C 393.645,229.241 401.312,234.241 408.5,240C 416.214,240.232 423.881,240.732 431.5,241.5C 419.88,243.473 407.88,244.64 395.5,245C 393.934,245.608 392.6,246.442 391.5,247.5C 390.167,248.933 388.667,250.267 387,251.5C 379.522,266.358 372.188,281.358 365,296.5C 359.644,305.876 353.311,314.543 346,322.5C 345.517,323.448 345.351,324.448 345.5,325.5C 367.217,329.109 388.55,333.443 409.5,338.5C 406.813,338.336 404.146,338.503 401.5,339C 404.653,341.898 407.82,342.065 411,339.5C 411.71,340.973 412.876,341.64 414.5,341.5C 414.5,341.833 414.5,342.167 414.5,342.5C 408.445,342.662 402.445,342.162 396.5,341C 382.952,336.19 368.952,333.357 354.5,332.5C 353.945,337.6 352.279,342.267 349.5,346.5C 348.735,347.66 347.735,348.66 346.5,349.5C 345.438,348.575 345.438,347.575 346.5,346.5C 348.242,341.692 348.909,336.692 348.5,331.5C 332.691,328.345 322.357,334.345 317.5,349.5C 315.229,352.429 312.229,354.096 308.5,354.5C 303.697,353.792 299.364,352.126 295.5,349.5C 297.483,349.843 298.817,349.176 299.5,347.5C 304.952,350.579 309.952,349.912 314.5,345.5C 317.971,337.249 322.638,329.749 328.5,323C 329.167,322.333 329.833,322.333 330.5,323C 328.403,325 327.403,327.166 327.5,329.5C 332.793,327.187 337.793,324.354 342.5,321C 354.51,310.144 362.843,296.978 367.5,281.5C 369.031,280.075 368.698,279.409 366.5,279.5C 371.811,272.005 376.978,264.339 382,256.5C 385.061,252.174 385.894,247.507 384.5,242.5C 376.278,233.059 365.944,229.225 353.5,231C 334.669,234.929 315.669,237.929 296.5,240C 291.537,242.564 288.204,246.564 286.5,252C 288.398,256.008 289.232,260.174 289,264.5C 286.898,258.508 284.231,252.841 281,247.5C 276.101,243.301 270.934,239.468 265.5,236C 253.709,231.776 241.709,228.609 229.5,226.5C 222.095,227.143 214.928,228.81 208,231.5C 207.5,231.333 207,231.167 206.5,231C 208.364,229.569 210.364,228.403 212.5,227.5C 215.834,225.337 219.5,224.004 223.5,223.5C 223.283,219.015 221.783,215.015 219,211.5C 206.211,201.173 191.711,194.506 175.5,191.5 Z"/></g>
<g><path style="opacity:1" fill="#d55675" d="M 270.5,227.5 C 269.209,227.263 268.209,227.596 267.5,228.5C 264.868,227.673 262.202,226.84 259.5,226C 263.477,225.121 267.144,225.621 270.5,227.5 Z"/></g>
<g><path style="opacity:1" fill="#261c2d" d="M 431.5,241.5 C 434.94,242.091 438.273,243.091 441.5,244.5C 447.153,249.504 450.986,255.504 453,262.5C 449.213,257.044 445.046,251.877 440.5,247C 439.5,246.667 438.5,246.333 437.5,246C 422.113,245.158 406.78,245.658 391.5,247.5C 392.6,246.442 393.934,245.608 395.5,245C 407.88,244.64 419.88,243.473 431.5,241.5 Z"/></g>
<g><path style="opacity:1" fill="#fd4b73" d="M 466.5,279.5 C 465.833,280.167 465.167,280.833 464.5,281.5C 463.849,280.909 463.182,280.243 462.5,279.5C 462.167,279.833 461.833,280.167 461.5,280.5C 462.667,283.5 463.833,286.5 465,289.5C 470.039,294.753 470.872,300.753 467.5,307.5C 459.641,311.859 453.641,318.026 449.5,326C 443.085,328.472 436.752,331.138 430.5,334C 423.638,336.234 416.638,337.734 409.5,338.5C 388.55,333.443 367.217,329.109 345.5,325.5C 345.351,324.448 345.517,323.448 346,322.5C 353.311,314.543 359.644,305.876 365,296.5C 372.188,281.358 379.522,266.358 387,251.5C 388.667,250.267 390.167,248.933 391.5,247.5C 406.78,245.658 422.113,245.158 437.5,246C 438.5,246.333 439.5,246.667 440.5,247C 445.046,251.877 449.213,257.044 453,262.5C 450.986,255.504 447.153,249.504 441.5,244.5C 438.273,243.091 434.94,242.091 431.5,241.5C 423.881,240.732 416.214,240.232 408.5,240C 401.312,234.241 393.645,229.241 385.5,225C 377.644,222.955 369.977,220.455 362.5,217.5C 361.348,213.896 360.348,210.229 359.5,206.5C 362.723,199.256 368.056,197.423 375.5,201C 388.74,207.24 398.24,217.073 404,230.5C 404.893,229.919 405.893,229.585 407,229.5C 422.824,232.553 437.324,238.719 450.5,248C 460.644,256.131 465.977,266.631 466.5,279.5 Z"/></g>
<g><path style="opacity:0.155" fill="#423248" d="M 57.5,245.5 C 55.9367,257.255 56.27,268.922 58.5,280.5C 57.0735,278.852 56.2401,276.852 56,274.5C 55.0972,264.612 55.5972,254.945 57.5,245.5 Z"/></g>
<g><path style="opacity:1" fill="#3e4a53" d="M 366.5,279.5 C 368.698,279.409 369.031,280.075 367.5,281.5C 364.944,282.543 362.777,284.21 361,286.5C 361.772,283.536 363.605,281.202 366.5,279.5 Z"/></g>
<g><path style="opacity:1" fill="#786a75" d="M 466.5,279.5 C 467.39,281.782 467.556,284.115 467,286.5C 465.628,285.09 464.795,283.423 464.5,281.5C 465.167,280.833 465.833,280.167 466.5,279.5 Z"/></g>
<g><path style="opacity:1" fill="#191521" d="M 249.5,299.5 C 247.5,300.167 245.5,300.833 243.5,301.5C 230.903,302.178 218.569,300.678 206.5,297C 201.656,292.154 197.156,286.988 193,281.5C 191.587,278.339 189.92,275.339 188,272.5C 187.333,271.5 187.333,270.5 188,269.5C 196.684,284.523 209.517,293.69 226.5,297C 234.039,298.977 241.706,299.811 249.5,299.5 Z"/></g>
<g><path style="opacity:1" fill="#26192e" d="M 303.5,295.5 C 303.735,294.903 304.235,294.57 305,294.5C 308.762,297.13 312.929,298.796 317.5,299.5C 311.834,301.546 307.168,300.212 303.5,295.5 Z"/></g>
<g><path style="opacity:1" fill="#6b3050" d="M 116.5,303.5 C 114.554,302.746 113.721,301.412 114,299.5C 115.481,300.471 116.315,301.804 116.5,303.5 Z"/></g>
<g><path style="opacity:1" fill="#902d4d" d="M 249.5,299.5 C 250.552,299.351 251.552,299.517 252.5,300C 249.722,301.392 246.722,301.892 243.5,301.5C 245.5,300.833 247.5,300.167 249.5,299.5 Z"/></g>
<g><path style="opacity:1" fill="#0f121e" d="M 389.5,307.5 C 389.735,306.903 390.235,306.57 391,306.5C 398.61,307.56 405.776,309.727 412.5,313C 418.167,313.333 423.833,313.667 429.5,314C 423.473,317.035 417.14,318.035 410.5,317C 403.379,314.125 396.379,310.959 389.5,307.5 Z"/></g>
<g><path style="opacity:1" fill="#1a1823" d="M 116.5,303.5 C 129.327,316.617 144.994,323.45 163.5,324C 148.054,328.913 135.054,325.413 124.5,313.5C 121.406,310.417 118.739,307.084 116.5,303.5 Z"/></g>
<g><path style="opacity:1" fill="#110f16" d="M 299.5,347.5 C 298.817,349.176 297.483,349.843 295.5,349.5C 278.821,350.325 262.154,350.325 245.5,349.5C 243.562,347.837 241.228,347.171 238.5,347.5C 232.266,345.658 226.099,343.658 220,341.5C 219.5,341.667 219,341.833 218.5,342C 219.582,344.687 221.249,346.854 223.5,348.5C 225.949,351.556 228.949,353.889 232.5,355.5C 233.429,356.315 234.429,357.148 235.5,358C 242.451,359.819 249.451,361.319 256.5,362.5C 259.627,363.581 262.96,364.247 266.5,364.5C 272.708,366.301 279.041,367.634 285.5,368.5C 286.5,368.5 287.5,368.5 288.5,368.5C 288.167,369.167 287.833,369.833 287.5,370.5C 273.291,370.576 259.291,368.91 245.5,365.5C 236.27,363.138 227.604,359.305 219.5,354C 213.364,348.044 207.698,341.71 202.5,335C 195.469,334.239 188.469,334.405 181.5,335.5C 180.833,335.333 180.167,335.167 179.5,335C 181.196,333.824 182.862,332.657 184.5,331.5C 187.373,330.75 189.373,329.083 190.5,326.5C 188.093,322.585 185.093,319.085 181.5,316C 181.833,315.833 182.167,315.667 182.5,315.5C 190.617,322.452 199.617,327.952 209.5,332C 219.486,335.658 229.486,339.324 239.5,343C 249.108,344.321 258.774,345.154 268.5,345.5C 277.159,344.63 285.825,344.463 294.5,345C 296.491,345.374 298.158,346.207 299.5,347.5 Z"/></g>
<g><path style="opacity:1" fill="#fe4b73" d="M 184.5,331.5 C 182.862,332.657 181.196,333.824 179.5,335C 180.167,335.167 180.833,335.333 181.5,335.5C 188.469,334.405 195.469,334.239 202.5,335C 207.698,341.71 213.364,348.044 219.5,354C 227.604,359.305 236.27,363.138 245.5,365.5C 247.977,370.254 250.644,374.921 253.5,379.5C 255.043,389.003 257.209,398.336 260,407.5C 266.4,413.615 273.567,418.615 281.5,422.5C 282.463,422.03 282.463,421.363 281.5,420.5C 283.084,421.382 284.751,422.215 286.5,423C 286.167,423.333 285.833,423.667 285.5,424C 289.452,428.323 291.785,433.489 292.5,439.5C 292.714,441.144 292.38,442.644 291.5,444C 293.021,447.644 293.855,451.477 294,455.5C 295.038,470.149 295.538,484.816 295.5,499.5C 276.833,499.5 258.167,499.5 239.5,499.5C 236.664,492.85 233.164,486.516 229,480.5C 223.868,462.772 218.535,445.105 213,427.5C 207.074,425.08 201.574,421.913 196.5,418C 188.659,411.323 180.992,404.49 173.5,397.5C 162.627,384.248 155.96,369.081 153.5,352C 153.755,350.674 154.422,349.674 155.5,349C 150.522,344.499 145.189,340.666 139.5,337.5C 139.489,335.983 138.823,334.816 137.5,334C 138.715,331.904 139.549,332.071 140,334.5C 140.674,333.422 141.674,332.755 143,332.5C 149.388,333.757 155.721,333.757 162,332.5C 163.158,332.998 163.991,333.831 164.5,335C 163.429,339.189 164.763,340.189 168.5,338C 168.167,337.667 167.833,337.333 167.5,337C 170.288,336.274 171.788,334.44 172,331.5C 172.743,333.441 172.576,335.274 171.5,337C 173.445,336.872 175.278,337.038 177,337.5C 177.273,335.671 178.107,334.171 179.5,333C 179,332.5 178.5,332 178,331.5C 177.492,333.904 176.325,334.571 174.5,333.5C 174.848,330.59 176.348,328.59 179,327.5C 180.147,328.458 181.147,328.125 182,326.5C 183.113,327.76 183.28,328.927 182.5,330C 183.416,330.278 184.082,330.778 184.5,331.5 Z"/></g>
<g><path style="opacity:1" fill="#fcc5d2" d="M 346.5,346.5 C 343.834,347.509 343.167,349.176 344.5,351.5C 343.279,352.465 341.946,352.298 340.5,351C 341.833,350 341.833,349 340.5,348C 341.167,347.333 341.833,346.667 342.5,346C 340.139,345.803 338.472,344.636 337.5,342.5C 336.158,343.902 335.324,343.569 335,341.5C 334.529,343.246 333.862,344.913 333,346.5C 331.68,344.183 330.014,342.183 328,340.5C 327.349,342.235 327.515,343.902 328.5,345.5C 326.615,346.197 326.282,347.197 327.5,348.5C 326.738,348.911 325.738,349.077 324.5,349C 328.076,350.716 331.743,352.716 335.5,355C 334.255,355.791 332.922,356.291 331.5,356.5C 329.035,356.767 326.701,357.434 324.5,358.5C 323.571,357.685 322.571,356.852 321.5,356C 327.796,355.697 327.796,355.03 321.5,354C 322.938,353.781 324.271,353.281 325.5,352.5C 324.263,351.719 323.263,350.719 322.5,349.5C 324.124,348.131 324.624,346.464 324,344.5C 323.085,345.328 322.419,346.328 322,347.5C 321.667,346.833 321.333,346.167 321,345.5C 320.502,347.544 319.335,348.878 317.5,349.5C 322.357,334.345 332.691,328.345 348.5,331.5C 348.909,336.692 348.242,341.692 346.5,346.5 Z"/></g>
<g><path style="opacity:1" fill="#e492a4" d="M 414.5,342.5 C 414.5,342.167 414.5,341.833 414.5,341.5C 417.187,341.336 419.854,341.503 422.5,342C 418.985,345.682 415.318,349.182 411.5,352.5C 412.325,353.386 413.325,353.719 414.5,353.5C 413.235,354.479 411.901,355.479 410.5,356.5C 410.167,356 409.833,355.5 409.5,355C 411.65,351.177 413.817,347.343 416,343.5C 416.718,344.451 417.551,344.617 418.5,344C 417.437,342.812 416.103,342.312 414.5,342.5 Z"/></g>
<g><path style="opacity:1" fill="#fec9d5" d="M 414.5,342.5 C 416.103,342.312 417.437,342.812 418.5,344C 417.551,344.617 416.718,344.451 416,343.5C 413.817,347.343 411.65,351.177 409.5,355C 409.833,355.5 410.167,356 410.5,356.5C 411.901,355.479 413.235,354.479 414.5,353.5C 416.21,351.8 418.21,350.467 420.5,349.5C 420.833,349.833 421.167,350.167 421.5,350.5C 422.777,357.442 423.777,364.442 424.5,371.5C 423.844,378.811 421.011,385.145 416,390.5C 414.346,395.636 412.846,400.803 411.5,406C 414.493,433.559 414.16,461.059 410.5,488.5C 409.883,488.611 409.383,488.944 409,489.5C 409.007,495.704 408.007,496.37 406,491.5C 405.567,499.336 404.567,499.336 403,491.5C 402.667,493.167 402.333,494.833 402,496.5C 370.706,495.853 339.206,495.186 307.5,494.5C 305.945,494.722 304.611,495.389 303.5,496.5C 302.094,495.332 300.928,495.665 300,497.5C 298.757,483.976 297.924,470.31 297.5,456.5C 297.667,454.833 297.833,453.167 298,451.5C 298.333,452.5 298.667,453.5 299,454.5C 299.576,452.623 299.409,450.789 298.5,449C 298.944,447.238 299.444,447.405 300,449.5C 300.598,445.947 299.931,442.614 298,439.5C 297.626,440.416 297.126,441.25 296.5,442C 297.428,442.388 298.095,443.055 298.5,444C 298.053,447.15 297.053,449.983 295.5,452.5C 296.097,447.706 295.43,443.373 293.5,439.5C 293.167,439.5 292.833,439.5 292.5,439.5C 291.785,433.489 289.452,428.323 285.5,424C 285.833,423.667 286.167,423.333 286.5,423C 284.751,422.215 283.084,421.382 281.5,420.5C 268.752,413.926 261.252,403.593 259,389.5C 257.458,385.914 255.625,382.581 253.5,379.5C 250.644,374.921 247.977,370.254 245.5,365.5C 259.291,368.91 273.291,370.576 287.5,370.5C 295.717,369.381 296.051,368.715 288.5,368.5C 287.5,368.5 286.5,368.5 285.5,368.5C 283.9,367.356 282.233,366.189 280.5,365C 281.167,364.667 281.833,364.333 282.5,364C 279.339,362.587 276.339,360.92 273.5,359C 275.5,358.667 277.5,358.333 279.5,358C 276.464,357.362 273.464,357.528 270.5,358.5C 267.714,357.9 265.881,356.9 265,355.5C 264.167,355.667 263.333,355.833 262.5,356C 261.167,356.667 261.167,357.333 262.5,358C 260.711,358.52 259.044,358.187 257.5,357C 258.167,356.667 258.833,356.333 259.5,356C 257.048,355.71 254.715,355.044 252.5,354C 252.957,353.586 253.291,353.086 253.5,352.5C 267.141,351.092 280.808,350.592 294.5,351C 293.549,351.718 293.383,352.551 294,353.5C 297.91,354.24 299.744,356.573 299.5,360.5C 298.127,360.343 296.793,360.51 295.5,361C 297.402,361.199 298.902,362.033 300,363.5C 300.718,362.549 301.551,362.383 302.5,363C 301.549,363.718 301.383,364.551 302,365.5C 303.214,363.951 304.714,362.785 306.5,362C 305.833,361.667 305.167,361.333 304.5,361C 305.833,360.333 307.167,359.667 308.5,359C 311.073,358.572 313.406,358.906 315.5,360C 314.167,359.333 314.167,358.667 315.5,358C 314.09,357.632 313.09,356.799 312.5,355.5C 314.047,355.793 315.714,355.293 317.5,354C 316.833,353.667 316.167,353.333 315.5,353C 316.823,352.184 317.489,351.017 317.5,349.5C 319.335,348.878 320.502,347.544 321,345.5C 321.333,346.167 321.667,346.833 322,347.5C 322.419,346.328 323.085,345.328 324,344.5C 324.624,346.464 324.124,348.131 322.5,349.5C 323.263,350.719 324.263,351.719 325.5,352.5C 324.271,353.281 322.938,353.781 321.5,354C 327.796,355.03 327.796,355.697 321.5,356C 322.571,356.852 323.571,357.685 324.5,358.5C 321.484,359.562 318.484,360.729 315.5,362C 314.289,362.893 314.289,363.726 315.5,364.5C 321.142,362.346 326.475,359.679 331.5,356.5C 332.922,356.291 334.255,355.791 335.5,355C 331.743,352.716 328.076,350.716 324.5,349C 325.738,349.077 326.738,348.911 327.5,348.5C 326.282,347.197 326.615,346.197 328.5,345.5C 327.515,343.902 327.349,342.235 328,340.5C 330.014,342.183 331.68,344.183 333,346.5C 333.862,344.913 334.529,343.246 335,341.5C 335.324,343.569 336.158,343.902 337.5,342.5C 338.472,344.636 340.139,345.803 342.5,346C 341.833,346.667 341.167,347.333 340.5,348C 341.833,349 341.833,350 340.5,351C 341.946,352.298 343.279,352.465 344.5,351.5C 346.117,350.962 347.784,350.629 349.5,350.5C 353.167,350.5 356.833,350.5 360.5,350.5C 368.703,352.775 377.037,353.942 385.5,354C 377.188,352.438 368.855,350.938 360.5,349.5C 357.609,348.597 354.609,348.264 351.5,348.5C 350.167,348.5 349.5,347.833 349.5,346.5C 352.279,342.267 353.945,337.6 354.5,332.5C 368.952,333.357 382.952,336.19 396.5,341C 402.445,342.162 408.445,342.662 414.5,342.5 Z"/></g>
<g><path style="opacity:1" fill="#c46e85" d="M 238.5,347.5 C 241.228,347.171 243.562,347.837 245.5,349.5C 242.848,349.59 240.515,348.924 238.5,347.5 Z"/></g>
<g><path style="opacity:1" fill="#fa466c" d="M 351.5,348.5 C 354.609,348.264 357.609,348.597 360.5,349.5C 360.5,349.833 360.5,350.167 360.5,350.5C 356.833,350.5 353.167,350.5 349.5,350.5C 350.167,349.833 350.833,349.167 351.5,348.5 Z"/></g>
<g><path style="opacity:1" fill="#f58ea3" d="M 346.5,346.5 C 345.438,347.575 345.438,348.575 346.5,349.5C 347.735,348.66 348.735,347.66 349.5,346.5C 349.5,347.833 350.167,348.5 351.5,348.5C 350.833,349.167 350.167,349.833 349.5,350.5C 347.784,350.629 346.117,350.962 344.5,351.5C 343.167,349.176 343.834,347.509 346.5,346.5 Z"/></g>
<g><path style="opacity:1" fill="#e38399" d="M 223.5,348.5 C 227.121,350.131 230.121,352.465 232.5,355.5C 228.949,353.889 225.949,351.556 223.5,348.5 Z"/></g>
<g><path style="opacity:1" fill="#ca5a76" d="M 360.5,350.5 C 360.5,350.167 360.5,349.833 360.5,349.5C 368.855,350.938 377.188,352.438 385.5,354C 377.037,353.942 368.703,352.775 360.5,350.5 Z"/></g>
<g><path style="opacity:1" fill="#f9c1ce" d="M 238.5,347.5 C 240.515,348.924 242.848,349.59 245.5,349.5C 262.154,350.325 278.821,350.325 295.5,349.5C 299.364,352.126 303.697,353.792 308.5,354.5C 312.229,354.096 315.229,352.429 317.5,349.5C 317.489,351.017 316.823,352.184 315.5,353C 316.167,353.333 316.833,353.667 317.5,354C 315.714,355.293 314.047,355.793 312.5,355.5C 313.09,356.799 314.09,357.632 315.5,358C 314.167,358.667 314.167,359.333 315.5,360C 313.406,358.906 311.073,358.572 308.5,359C 307.167,359.667 305.833,360.333 304.5,361C 305.167,361.333 305.833,361.667 306.5,362C 304.714,362.785 303.214,363.951 302,365.5C 301.383,364.551 301.549,363.718 302.5,363C 301.551,362.383 300.718,362.549 300,363.5C 298.902,362.033 297.402,361.199 295.5,361C 296.793,360.51 298.127,360.343 299.5,360.5C 299.744,356.573 297.91,354.24 294,353.5C 293.383,352.551 293.549,351.718 294.5,351C 280.808,350.592 267.141,351.092 253.5,352.5C 253.291,353.086 252.957,353.586 252.5,354C 254.715,355.044 257.048,355.71 259.5,356C 258.833,356.333 258.167,356.667 257.5,357C 259.044,358.187 260.711,358.52 262.5,358C 261.167,357.333 261.167,356.667 262.5,356C 263.333,355.833 264.167,355.667 265,355.5C 265.881,356.9 267.714,357.9 270.5,358.5C 273.464,357.528 276.464,357.362 279.5,358C 277.5,358.333 275.5,358.667 273.5,359C 276.339,360.92 279.339,362.587 282.5,364C 281.833,364.333 281.167,364.667 280.5,365C 282.233,366.189 283.9,367.356 285.5,368.5C 279.041,367.634 272.708,366.301 266.5,364.5C 263.493,362.825 260.16,362.159 256.5,362.5C 249.451,361.319 242.451,359.819 235.5,358C 234.429,357.148 233.429,356.315 232.5,355.5C 230.121,352.465 227.121,350.131 223.5,348.5C 221.249,346.854 219.582,344.687 218.5,342C 219,341.833 219.5,341.667 220,341.5C 226.099,343.658 232.266,345.658 238.5,347.5 Z"/></g>
<g><path style="opacity:1" fill="#d35573" d="M 331.5,356.5 C 326.475,359.679 321.142,362.346 315.5,364.5C 314.289,363.726 314.289,362.893 315.5,362C 318.484,360.729 321.484,359.562 324.5,358.5C 326.701,357.434 329.035,356.767 331.5,356.5 Z"/></g>
<g><path style="opacity:1" fill="#de4b6c" d="M 256.5,362.5 C 260.16,362.159 263.493,362.825 266.5,364.5C 262.96,364.247 259.627,363.581 256.5,362.5 Z"/></g>
<g><path style="opacity:1" fill="#bf4563" d="M 288.5,368.5 C 296.051,368.715 295.717,369.381 287.5,370.5C 287.833,369.833 288.167,369.167 288.5,368.5 Z"/></g>
<g><path style="opacity:1" fill="#171625" d="M 218.5,365.5 C 219.117,365.611 219.617,365.944 220,366.5C 220.667,369.833 221.333,373.167 222,376.5C 225.83,381.163 229.997,385.497 234.5,389.5C 229.502,387.902 224.669,385.236 220,381.5C 218.661,376.264 218.161,370.93 218.5,365.5 Z"/></g>
<g><path style="opacity:1" fill="#171d2d" d="M 359.5,404.5 C 362.187,404.336 364.854,404.503 367.5,405C 364.69,405.782 362.023,406.616 359.5,407.5C 357.097,407.448 354.764,407.781 352.5,408.5C 351.508,408.672 350.842,408.338 350.5,407.5C 353.426,406.302 356.426,405.302 359.5,404.5 Z"/></g>
<g><path style="opacity:1" fill="#ea879d" d="M 359.5,407.5 C 362.023,406.616 364.69,405.782 367.5,405C 364.854,404.503 362.187,404.336 359.5,404.5C 362.665,403.678 365.998,403.011 369.5,402.5C 375.804,404.436 375.804,405.602 369.5,406C 370.167,406.333 370.833,406.667 371.5,407C 367.514,407.499 363.514,407.666 359.5,407.5 Z"/></g>
<g><path style="opacity:1" fill="#15151e" d="M 253.5,379.5 C 255.625,382.581 257.458,385.914 259,389.5C 261.252,403.593 268.752,413.926 281.5,420.5C 282.463,421.363 282.463,422.03 281.5,422.5C 273.567,418.615 266.4,413.615 260,407.5C 257.209,398.336 255.043,389.003 253.5,379.5 Z"/></g>
<g><path style="opacity:1" fill="#c9657c" d="M 350.5,407.5 C 350.842,408.338 351.508,408.672 352.5,408.5C 348.332,410.271 344.165,412.271 340,414.5C 339.316,413.216 339.483,412.049 340.5,411C 343.962,409.996 347.296,408.83 350.5,407.5 Z"/></g>
<g><path style="opacity:1" fill="#e990a3" d="M 293.5,439.5 C 295.43,443.373 296.097,447.706 295.5,452.5C 294.437,448.361 293.77,444.028 293.5,439.5 Z"/></g>
<g><path style="opacity:1" fill="#352634" d="M 292.5,439.5 C 292.833,439.5 293.167,439.5 293.5,439.5C 293.77,444.028 294.437,448.361 295.5,452.5C 296.319,468.152 296.653,483.819 296.5,499.5C 296.167,499.5 295.833,499.5 295.5,499.5C 295.538,484.816 295.038,470.149 294,455.5C 293.855,451.477 293.021,447.644 291.5,444C 292.38,442.644 292.714,441.144 292.5,439.5 Z"/></g>
<g><path style="opacity:1" fill="#febecc" d="M 410.5,488.5 C 410.583,492.335 409.917,496.002 408.5,499.5C 371.167,499.5 333.833,499.5 296.5,499.5C 296.653,483.819 296.319,468.152 295.5,452.5C 297.053,449.983 298.053,447.15 298.5,444C 298.095,443.055 297.428,442.388 296.5,442C 297.126,441.25 297.626,440.416 298,439.5C 299.931,442.614 300.598,445.947 300,449.5C 299.444,447.405 298.944,447.238 298.5,449C 299.409,450.789 299.576,452.623 299,454.5C 298.667,453.5 298.333,452.5 298,451.5C 297.833,453.167 297.667,454.833 297.5,456.5C 297.924,470.31 298.757,483.976 300,497.5C 300.928,495.665 302.094,495.332 303.5,496.5C 304.611,495.389 305.945,494.722 307.5,494.5C 339.206,495.186 370.706,495.853 402,496.5C 402.333,494.833 402.667,493.167 403,491.5C 404.567,499.336 405.567,499.336 406,491.5C 408.007,496.37 409.007,495.704 409,489.5C 409.383,488.944 409.883,488.611 410.5,488.5 Z"/></g>
</svg>
